<svg width="40" height="40" viewBox="0 0 40 40" fill="none" xmlns="http://www.w3.org/2000/svg">
<path fill-rule="evenodd" clip-rule="evenodd" d="M21.8165 25.6688L21.8165 5.22564L18.162 5.22564L18.162 25.6206C15.8352 23.2575 12.6024 21.7922 9.026 21.7922L9.026 25.4466C13.7761 25.4466 17.691 29.0684 18.162 33.7191L18.162 34.461L18.1636 34.461C18.1626 34.5279 18.162 34.5951 18.162 34.6623L18.2095 34.6623C18.2095 34.6624 18.2095 34.6625 18.2095 34.6626L21.864 34.6626C21.864 34.4205 21.8573 34.1801 21.8441 33.9413C22.2107 29.1841 26.1745 25.4463 31 25.4463L31 21.7918C27.3992 21.7918 24.1467 23.2772 21.8165 25.6688Z" fill="white"/>
</svg>
